%TF.GenerationSoftware,KiCad,Pcbnew,10.0.6-10.0.6~ubuntu24.04.1*%
%TF.CreationDate,2026-09-28T16:35:47-03:00*%
%TF.ProjectId,G2_MPPC_Readout,47325f4d-5050-4435-9f52-6561646f7574,rev?*%
%TF.SameCoordinates,Original*%
%TF.FileFunction,Copper,L1,Top*%
%TF.FilePolarity,Positive*%
%FSLAX46Y46*%
G04 Gerber Fmt 4.6, Leading zero omitted, Abs format (unit mm)*
G04 Created by KiCad (PCBNEW 10.0.6-10.0.6~ubuntu24.04.1) date 2026-09-28 16:35:47*
%MOMM*%
%LPD*%
G01*
G04 APERTURE LIST*
G04 Aperture macros list*
%AMRoundRect*
0 Rectangle with rounded corners*
0 $1 Rounding radius*
0 $2 $3 $4 $5 $6 $7 $8 $9 X,Y pos of 4 corners*
0 Add a 4 corners polygon primitive as box body*
4,1,4,$2,$3,$4,$5,$6,$7,$8,$9,$2,$3,0*
0 Add four circle primitives for the rounded corners*
1,1,$1+$1,$2,$3*
1,1,$1+$1,$4,$5*
1,1,$1+$1,$6,$7*
1,1,$1+$1,$8,$9*
0 Add four rect primitives between the rounded corners*
20,1,$1+$1,$2,$3,$4,$5,0*
20,1,$1+$1,$4,$5,$6,$7,0*
20,1,$1+$1,$6,$7,$8,$9,0*
20,1,$1+$1,$8,$9,$2,$3,0*%
G04 Aperture macros list end*
%TA.AperFunction,SMDPad,CuDef*%
%ADD10RoundRect,0.250000X0.625000X-0.312500X0.625000X0.312500X-0.625000X0.312500X-0.625000X-0.312500X0*%
%TD*%
%TA.AperFunction,ComponentPad*%
%ADD11R,1.700000X1.700000*%
%TD*%
%TA.AperFunction,ComponentPad*%
%ADD12C,1.700000*%
%TD*%
%TA.AperFunction,SMDPad,CuDef*%
%ADD13RoundRect,0.250000X0.312500X0.625000X-0.312500X0.625000X-0.312500X-0.625000X0.312500X-0.625000X0*%
%TD*%
%TA.AperFunction,SMDPad,CuDef*%
%ADD14RoundRect,0.250000X0.475000X-0.250000X0.475000X0.250000X-0.475000X0.250000X-0.475000X-0.250000X0*%
%TD*%
%TA.AperFunction,SMDPad,CuDef*%
%ADD15RoundRect,0.250000X-0.250000X-0.475000X0.250000X-0.475000X0.250000X0.475000X-0.250000X0.475000X0*%
%TD*%
%TA.AperFunction,SMDPad,CuDef*%
%ADD16RoundRect,0.250000X-0.475000X0.250000X-0.475000X-0.250000X0.475000X-0.250000X0.475000X0.250000X0*%
%TD*%
%TA.AperFunction,SMDPad,CuDef*%
%ADD17RoundRect,0.250000X-0.312500X-0.625000X0.312500X-0.625000X0.312500X0.625000X-0.312500X0.625000X0*%
%TD*%
%TA.AperFunction,SMDPad,CuDef*%
%ADD18RoundRect,0.150000X0.150000X-0.587500X0.150000X0.587500X-0.150000X0.587500X-0.150000X-0.587500X0*%
%TD*%
%TA.AperFunction,SMDPad,CuDef*%
%ADD19RoundRect,0.150000X-0.587500X-0.150000X0.587500X-0.150000X0.587500X0.150000X-0.587500X0.150000X0*%
%TD*%
%TA.AperFunction,Conductor*%
%ADD20C,1.016000*%
%TD*%
%TA.AperFunction,Conductor*%
%ADD21C,1.270000*%
%TD*%
%TA.AperFunction,Conductor*%
%ADD22C,0.200000*%
%TD*%
%TA.AperFunction,Conductor*%
%ADD23C,0.635000*%
%TD*%
G04 APERTURE END LIST*
D10*
%TO.P,Ra1,1,1_1*%
%TO.N,Net-(Q2-B)*%
X149000000Y-84462500D03*
%TO.P,Ra1,2,2_2*%
%TO.N,/VDC*%
X149000000Y-81537500D03*
%TD*%
%TO.P,Rb2,1,1_1*%
%TO.N,GND*%
X143000000Y-105462500D03*
%TO.P,Rb2,2,2_2*%
%TO.N,Net-(MPPC1-Pin_2)*%
X143000000Y-102537500D03*
%TD*%
D11*
%TO.P,Oscilloscope1,1,Pin_1_1*%
%TO.N,/Oscilloscope*%
X159000000Y-98000000D03*
D12*
%TO.P,Oscilloscope1,2,Pin_2_2*%
%TO.N,GND*%
X156460000Y-98000000D03*
%TD*%
D13*
%TO.P,Rc1,1,1_1*%
%TO.N,Net-(Q2-C)*%
X161962500Y-82000000D03*
%TO.P,Rc1,2,2_2*%
%TO.N,/VDC*%
X159037500Y-82000000D03*
%TD*%
D11*
%TO.P,V_High_voltage1,1,Pin_1_1*%
%TO.N,Net-(V_High_voltage1-Pin_1)*%
X138540000Y-103000000D03*
D12*
%TO.P,V_High_voltage1,2,Pin_2_2*%
%TO.N,GND*%
X136000000Y-103000000D03*
%TD*%
D14*
%TO.P,C3,1,1_1*%
%TO.N,GND*%
X144000000Y-83950000D03*
%TO.P,C3,2,2_2*%
%TO.N,/VDC*%
X144000000Y-82050000D03*
%TD*%
D15*
%TO.P,Cs1,1,1_1*%
%TO.N,Net-(MPPC1-Pin_2)*%
X142450000Y-98000000D03*
%TO.P,Cs1,2,2_2*%
%TO.N,Net-(Q1-B)*%
X144350000Y-98000000D03*
%TD*%
D11*
%TO.P,MPPC1,1,Pin_1_1*%
%TO.N,Net-(MPPC1-Pin_1)*%
X139000000Y-94000000D03*
D12*
%TO.P,MPPC1,2,Pin_2_2*%
%TO.N,Net-(MPPC1-Pin_2)*%
X139000000Y-91460000D03*
%TD*%
D10*
%TO.P,R2,1,1_1*%
%TO.N,GND*%
X156000000Y-94462500D03*
%TO.P,R2,2,2_2*%
%TO.N,/Oscilloscope*%
X156000000Y-91537500D03*
%TD*%
%TO.P,R3,1,1_1*%
%TO.N,GND*%
X161000000Y-94462500D03*
%TO.P,R3,2,2_2*%
%TO.N,/Oscilloscope*%
X161000000Y-91537500D03*
%TD*%
D14*
%TO.P,C1,1,1_1*%
%TO.N,GND*%
X157000000Y-104950000D03*
%TO.P,C1,2,2_2*%
%TO.N,Net-(Q1-E)*%
X157000000Y-103050000D03*
%TD*%
D11*
%TO.P,VDC-Low_volatge1,1,Pin_1_1*%
%TO.N,/VDC*%
X138625524Y-81772106D03*
D12*
%TO.P,VDC-Low_volatge1,2,Pin_2_2*%
%TO.N,GND*%
X136085524Y-81772106D03*
%TD*%
D16*
%TO.P,Cc1,1,1_1*%
%TO.N,Net-(Q2-C)*%
X161000000Y-86950000D03*
%TO.P,Cc1,2,2_2*%
%TO.N,/Oscilloscope*%
X161000000Y-88850000D03*
%TD*%
D15*
%TO.P,C4,1,1_1*%
%TO.N,GND*%
X134100000Y-96000000D03*
%TO.P,C4,2,2_2*%
%TO.N,Net-(MPPC1-Pin_1)*%
X136000000Y-96000000D03*
%TD*%
D10*
%TO.P,RL1,1,1_1*%
%TO.N,GND*%
X153000000Y-105462500D03*
%TO.P,RL1,2,2_2*%
%TO.N,Net-(Q1-E)*%
X153000000Y-102537500D03*
%TD*%
D17*
%TO.P,Rb3,1,1_1*%
%TO.N,Net-(MPPC1-Pin_1)*%
X137000000Y-99000000D03*
%TO.P,Rb3,2,2_2*%
%TO.N,Net-(V_High_voltage1-Pin_1)*%
X139925000Y-99000000D03*
%TD*%
D10*
%TO.P,R1,1,1_1*%
%TO.N,Net-(Q1-B)*%
X145000000Y-94962500D03*
%TO.P,R1,2,2_2*%
%TO.N,Net-(Q2-B)*%
X145000000Y-92037500D03*
%TD*%
D15*
%TO.P,C2,1,1_1*%
%TO.N,GND*%
X136650000Y-87000000D03*
%TO.P,C2,2,2_2*%
%TO.N,Net-(Q2-B)*%
X138550000Y-87000000D03*
%TD*%
D10*
%TO.P,Rb1,1,1_1*%
%TO.N,GND*%
X149000000Y-105462500D03*
%TO.P,Rb1,2,2_2*%
%TO.N,Net-(Q1-B)*%
X149000000Y-102537500D03*
%TD*%
D18*
%TO.P,Q1,3,C_3*%
%TO.N,Net-(Q1-C)*%
X150050000Y-94125000D03*
%TO.P,Q1,2,E_2*%
%TO.N,Net-(Q1-E)*%
X151000000Y-96000000D03*
%TO.P,Q1,1,B_1*%
%TO.N,Net-(Q1-B)*%
X149100000Y-96000000D03*
%TD*%
D19*
%TO.P,Q2,3,C_3*%
%TO.N,Net-(Q2-C)*%
X152287500Y-88800000D03*
%TO.P,Q2,2,E_2*%
%TO.N,Net-(Q1-C)*%
X150412500Y-89750000D03*
%TO.P,Q2,1,B_1*%
%TO.N,Net-(Q2-B)*%
X150412500Y-87850000D03*
%TD*%
%TO.N,Net-(Q1-E)*%
D20*
X153000000Y-97000000D02*
X152000000Y-97000000D01*
X152000000Y-97000000D02*
X151000000Y-96000000D01*
%TO.N,Net-(Q1-C)*%
D21*
X150050000Y-94125000D02*
X150050000Y-90112500D01*
D22*
X150050000Y-90112500D02*
X150412500Y-89750000D01*
%TO.N,Net-(Q1-B)*%
D21*
X145000000Y-96000000D02*
X149100000Y-96000000D01*
%TO.N,Net-(Q2-B)*%
X148500000Y-85000000D02*
X150412500Y-86912500D01*
X150412500Y-86912500D02*
X150412500Y-87850000D01*
%TO.N,Net-(Q2-C)*%
X154000000Y-87000000D02*
X154000000Y-87087500D01*
X154000000Y-87087500D02*
X152287500Y-88800000D01*
X162000000Y-82000000D02*
X162000000Y-86000000D01*
X154000000Y-87000000D02*
X161000000Y-87000000D01*
X162000000Y-86000000D02*
X161000000Y-87000000D01*
%TO.N,/VDC*%
X158500000Y-81500000D02*
X159000000Y-82000000D01*
X144000000Y-81600000D02*
X138797630Y-81600000D01*
X144100000Y-81500000D02*
X144000000Y-81600000D01*
X149000000Y-81500000D02*
X144100000Y-81500000D01*
X138797630Y-81600000D02*
X138625524Y-81772106D01*
X149000000Y-81500000D02*
X158500000Y-81500000D01*
%TO.N,Net-(Q1-B)*%
X149000000Y-102500000D02*
X149000000Y-102200000D01*
X147900000Y-101100000D02*
X144800000Y-98000000D01*
X145000000Y-96000000D02*
X145000000Y-97000000D01*
X145000000Y-94500000D02*
X145000000Y-96000000D01*
X145000000Y-97800000D02*
X144800000Y-98000000D01*
X149000000Y-102200000D02*
X147900000Y-101100000D01*
X145000000Y-97000000D02*
X145000000Y-97800000D01*
%TO.N,Net-(Q1-E)*%
D20*
X153000000Y-97000000D02*
X153000000Y-102500000D01*
D21*
X153000000Y-102500000D02*
X156400000Y-102500000D01*
X156400000Y-102500000D02*
X157000000Y-103100000D01*
%TO.N,Net-(Q2-B)*%
X148500000Y-85000000D02*
X149000000Y-84500000D01*
%TO.N,Net-(Q1-C)*%
D23*
X150700000Y-89600000D02*
X150000000Y-89600000D01*
%TO.N,Net-(Q2-B)*%
D21*
X147000000Y-87000000D02*
X147000000Y-85000000D01*
X145000000Y-87000000D02*
X147000000Y-87000000D01*
X138500000Y-87000000D02*
X145000000Y-87000000D01*
X145000000Y-89000000D02*
X145000000Y-90000000D01*
X147000000Y-85000000D02*
X148500000Y-85000000D01*
X145000000Y-87000000D02*
X145000000Y-89000000D01*
X145000000Y-90000000D02*
X145000000Y-91500000D01*
%TO.N,Net-(MPPC1-Pin_2)*%
X141460000Y-91460000D02*
X142000000Y-92000000D01*
X142000000Y-92000000D02*
X142000000Y-98000000D01*
X142000000Y-102000000D02*
X142000000Y-98000000D01*
X142500000Y-102500000D02*
X142000000Y-102000000D01*
X143000000Y-102500000D02*
X142500000Y-102500000D01*
X139000000Y-91460000D02*
X141460000Y-91460000D01*
%TO.N,GND*%
X134135000Y-85135000D02*
X134135000Y-83722630D01*
X161000000Y-104000000D02*
X159500000Y-105500000D01*
X136000000Y-103000000D02*
X136000000Y-104202081D01*
X143000000Y-105500000D02*
X149000000Y-105500000D01*
X156000000Y-99000000D02*
X158000000Y-101000000D01*
X134135000Y-96000000D02*
X134135000Y-91631893D01*
X153000000Y-105500000D02*
X156900000Y-105500000D01*
D22*
X134100000Y-96000000D02*
X134135000Y-96000000D01*
D21*
X156000000Y-94500000D02*
X156000000Y-99000000D01*
X136200000Y-88800000D02*
X136200000Y-87200000D01*
X161000000Y-101000000D02*
X161000000Y-104000000D01*
X135209802Y-89790197D02*
X136200000Y-88800000D01*
X137297919Y-105500000D02*
X143000000Y-105500000D01*
X136200000Y-87200000D02*
X134135000Y-85135000D01*
X156000000Y-94500000D02*
X161000000Y-94500000D01*
X159500000Y-105500000D02*
X156900000Y-105500000D01*
X134135000Y-101135000D02*
X134135000Y-96035000D01*
X136000000Y-103000000D02*
X134135000Y-101135000D01*
X144000000Y-84400000D02*
X138130000Y-84400000D01*
X136700000Y-85830000D02*
X136700000Y-87000000D01*
X156900000Y-105500000D02*
X157000000Y-105400000D01*
X134135000Y-90865000D02*
X135209802Y-89790197D01*
X149000000Y-105500000D02*
X153000000Y-105500000D01*
X138130000Y-84400000D02*
X136700000Y-85830000D01*
X136000000Y-104202081D02*
X137297919Y-105500000D01*
X134135000Y-91631893D02*
X134135000Y-90865000D01*
X134135000Y-83722630D02*
X136085524Y-81772106D01*
X158000000Y-101000000D02*
X161000000Y-101000000D01*
%TO.N,/Oscilloscope*%
X161000000Y-91500000D02*
X162500000Y-91500000D01*
X161000000Y-88800000D02*
X161000000Y-91500000D01*
X162500000Y-91500000D02*
X163865000Y-92865000D01*
X163865000Y-92865000D02*
X163865000Y-98000000D01*
X156000000Y-91500000D02*
X161000000Y-91500000D01*
X163865000Y-98000000D02*
X159000000Y-98000000D01*
%TO.N,Net-(MPPC1-Pin_1)*%
X136000000Y-98000000D02*
X137000000Y-99000000D01*
X138540000Y-94460000D02*
X137000000Y-96000000D01*
X139000000Y-94000000D02*
X138540000Y-94460000D01*
X136000000Y-96000000D02*
X136000000Y-98000000D01*
X137000000Y-96000000D02*
X136000000Y-96000000D01*
%TO.N,Net-(V_High_voltage1-Pin_1)*%
X138540000Y-103000000D02*
X139925000Y-101615000D01*
X139925000Y-101615000D02*
X139925000Y-99000000D01*
%TD*%
M02*
