%TF.GenerationSoftware,KiCad,Pcbnew,10.0.6-10.0.6~ubuntu24.04.1*%
%TF.CreationDate,2026-09-10T16:24:52-03:00*%
%TF.ProjectId,G2_MPPC_Readout,47325f4d-5050-4435-9f52-6561646f7574,rev?*%
%TF.SameCoordinates,Original*%
%TF.FileFunction,Copper,L1,Top*%
%TF.FilePolarity,Positive*%
%FSLAX46Y46*%
G04 Gerber Fmt 4.6, Leading zero omitted, Abs format (unit mm)*
G04 Created by KiCad (PCBNEW 10.0.6-10.0.6~ubuntu24.04.1) date 2026-09-10 16:24:52*
%MOMM*%
%LPD*%
G01*
G04 APERTURE LIST*
%TA.AperFunction,ComponentPad*%
%ADD10C,1.700000*%
%TD*%
%TA.AperFunction,ComponentPad*%
%ADD11R,1.700000X1.700000*%
%TD*%
%TA.AperFunction,SMDPad,CuDef*%
%ADD12R,0.600000X0.800000*%
%TD*%
%TA.AperFunction,SMDPad,CuDef*%
%ADD13R,1.000000X1.750000*%
%TD*%
%TA.AperFunction,SMDPad,CuDef*%
%ADD14R,1.750000X1.000000*%
%TD*%
%TA.AperFunction,SMDPad,CuDef*%
%ADD15R,1.450000X1.150000*%
%TD*%
%TA.AperFunction,SMDPad,CuDef*%
%ADD16R,1.150000X1.450000*%
%TD*%
%TA.AperFunction,Conductor*%
%ADD17C,1.270000*%
%TD*%
%TA.AperFunction,Conductor*%
%ADD18C,0.635000*%
%TD*%
%TA.AperFunction,Conductor*%
%ADD19C,0.762000*%
%TD*%
%TA.AperFunction,Conductor*%
%ADD20C,1.016000*%
%TD*%
%TA.AperFunction,Conductor*%
%ADD21C,0.508000*%
%TD*%
G04 APERTURE END LIST*
D10*
%TO.P,Oscilloscope1,2,Pin_2_2*%
%TO.N,GND*%
X145460000Y-130000000D03*
D11*
%TO.P,Oscilloscope1,1,Pin_1_1*%
%TO.N,/Oscilloscope*%
X148000000Y-130000000D03*
%TD*%
D12*
%TO.P,Q2,1,B_1*%
%TO.N,Net-(Q2-B)*%
X139700000Y-121600000D03*
%TO.P,Q2,2,E_2*%
%TO.N,Net-(Q1-C)*%
X141000000Y-121600000D03*
%TO.P,Q2,3,C_3*%
%TO.N,Net-(Q2-C)*%
X140350000Y-120000000D03*
%TD*%
%TO.P,Q1,1,B_1*%
%TO.N,Net-(Q1-B)*%
X139700000Y-128600000D03*
%TO.P,Q1,2,E_2*%
%TO.N,Net-(Q1-E)*%
X141000000Y-128600000D03*
%TO.P,Q1,3,C_3*%
%TO.N,Net-(Q1-C)*%
X140350000Y-127000000D03*
%TD*%
D13*
%TO.P,Rc1,1,1_1*%
%TO.N,Net-(Q2-C)*%
X151000000Y-114000000D03*
%TO.P,Rc1,2,2_2*%
%TO.N,/VDC*%
X148000000Y-114000000D03*
%TD*%
D11*
%TO.P,MPPC1,1,Pin_1_1*%
%TO.N,Net-(MPPC1-Pin_1)*%
X128000000Y-126000000D03*
D10*
%TO.P,MPPC1,2,Pin_2_2*%
%TO.N,Net-(MPPC1-Pin_2)*%
X128000000Y-123460000D03*
%TD*%
D14*
%TO.P,Ra1,1,1_1*%
%TO.N,Net-(Q2-B)*%
X138000000Y-116500000D03*
%TO.P,Ra1,2,2_2*%
%TO.N,/VDC*%
X138000000Y-113500000D03*
%TD*%
D15*
%TO.P,C3,1,1_1*%
%TO.N,GND*%
X133000000Y-115900000D03*
%TO.P,C3,2,2_2*%
%TO.N,/VDC*%
X133000000Y-114100000D03*
%TD*%
D10*
%TO.P,VDC-Low_volatge1,2,Pin_2_2*%
%TO.N,GND*%
X125085524Y-113772106D03*
D11*
%TO.P,VDC-Low_volatge1,1,Pin_1_1*%
%TO.N,/VDC*%
X127625524Y-113772106D03*
%TD*%
%TO.P,V_High_voltage1,1,Pin_1_1*%
%TO.N,Net-(MPPC1-Pin_1)*%
X127540000Y-135000000D03*
D10*
%TO.P,V_High_voltage1,2,Pin_2_2*%
%TO.N,GND*%
X125000000Y-135000000D03*
%TD*%
D15*
%TO.P,Cc1,1,1_1*%
%TO.N,Net-(Q2-C)*%
X150000000Y-119000000D03*
%TO.P,Cc1,2,2_2*%
%TO.N,/Oscilloscope*%
X150000000Y-120800000D03*
%TD*%
D16*
%TO.P,C2,1,1_1*%
%TO.N,GND*%
X125700000Y-119000000D03*
%TO.P,C2,2,2_2*%
%TO.N,Net-(Q2-B)*%
X127500000Y-119000000D03*
%TD*%
D15*
%TO.P,C1,1,1_1*%
%TO.N,GND*%
X146000000Y-136900000D03*
%TO.P,C1,2,2_2*%
%TO.N,Net-(Q1-E)*%
X146000000Y-135100000D03*
%TD*%
D14*
%TO.P,RL1,1,1_1*%
%TO.N,GND*%
X142000000Y-137500000D03*
%TO.P,RL1,2,2_2*%
%TO.N,Net-(Q1-E)*%
X142000000Y-134500000D03*
%TD*%
%TO.P,Rb1,1,1_1*%
%TO.N,GND*%
X138000000Y-137500000D03*
%TO.P,Rb1,2,2_2*%
%TO.N,Net-(Q1-B)*%
X138000000Y-134500000D03*
%TD*%
%TO.P,Rb2,1,1_1*%
%TO.N,GND*%
X132000000Y-137500000D03*
%TO.P,Rb2,2,2_2*%
%TO.N,Net-(MPPC1-Pin_2)*%
X132000000Y-134500000D03*
%TD*%
%TO.P,R1,1,1_1*%
%TO.N,Net-(Q1-B)*%
X134000000Y-127000000D03*
%TO.P,R1,2,2_2*%
%TO.N,Net-(Q2-B)*%
X134000000Y-124000000D03*
%TD*%
D16*
%TO.P,Cs1,1,1_1*%
%TO.N,Net-(MPPC1-Pin_2)*%
X131500000Y-130000000D03*
%TO.P,Cs1,2,2_2*%
%TO.N,Net-(Q1-B)*%
X133300000Y-130000000D03*
%TD*%
D14*
%TO.P,R2,1,1_1*%
%TO.N,GND*%
X145000000Y-126500000D03*
%TO.P,R2,2,2_2*%
%TO.N,/Oscilloscope*%
X145000000Y-123500000D03*
%TD*%
%TO.P,R3,1,1_1*%
%TO.N,GND*%
X150000000Y-126500000D03*
%TO.P,R3,2,2_2*%
%TO.N,/Oscilloscope*%
X150000000Y-123500000D03*
%TD*%
%TO.N,GND*%
D17*
X150000000Y-133000000D02*
X150000000Y-136000000D01*
X147000000Y-133000000D02*
X150000000Y-133000000D01*
X145000000Y-131000000D02*
X147000000Y-133000000D01*
X145000000Y-126500000D02*
X145000000Y-131000000D01*
%TO.N,/Oscilloscope*%
X152865000Y-130000000D02*
X148000000Y-130000000D01*
X152865000Y-124865000D02*
X152865000Y-130000000D01*
X151500000Y-123500000D02*
X152865000Y-124865000D01*
X150000000Y-123500000D02*
X151500000Y-123500000D01*
X150000000Y-120800000D02*
X150000000Y-123500000D01*
%TO.N,GND*%
X148500000Y-137500000D02*
X145900000Y-137500000D01*
X133000000Y-116400000D02*
X127130000Y-116400000D01*
X127130000Y-116400000D02*
X125700000Y-117830000D01*
X125700000Y-117830000D02*
X125700000Y-119000000D01*
X125085524Y-113772106D02*
X123135000Y-115722630D01*
X123135000Y-115722630D02*
X123135000Y-117135000D01*
X123135000Y-117135000D02*
X125200000Y-119200000D01*
X125200000Y-120800000D02*
X123135000Y-122865000D01*
X125200000Y-119200000D02*
X125200000Y-120800000D01*
X123135000Y-122865000D02*
X123135000Y-133135000D01*
X123135000Y-133135000D02*
X125000000Y-135000000D01*
%TO.N,Net-(Q2-C)*%
D18*
X140350000Y-120000000D02*
X142000000Y-120000000D01*
X142000000Y-120000000D02*
X143000000Y-119000000D01*
%TO.N,GND*%
D17*
X125000000Y-136202081D02*
X126297919Y-137500000D01*
%TO.N,Net-(Q2-B)*%
X134400000Y-121600000D02*
X139000000Y-121600000D01*
%TO.N,Net-(Q2-C)*%
X151000000Y-114000000D02*
X151000000Y-118000000D01*
%TO.N,Net-(Q2-B)*%
X134000000Y-122000000D02*
X134400000Y-121600000D01*
%TO.N,Net-(Q2-C)*%
X151000000Y-118000000D02*
X150000000Y-119000000D01*
%TO.N,Net-(MPPC1-Pin_1)*%
X127540000Y-126460000D02*
X128000000Y-126000000D01*
X127540000Y-135000000D02*
X127540000Y-126460000D01*
%TO.N,Net-(MPPC1-Pin_2)*%
X131500000Y-134500000D02*
X131000000Y-134000000D01*
X132000000Y-134500000D02*
X131500000Y-134500000D01*
X131000000Y-134000000D02*
X131000000Y-130000000D01*
X128000000Y-123460000D02*
X130460000Y-123460000D01*
X131000000Y-124000000D02*
X131000000Y-130000000D01*
X130460000Y-123460000D02*
X131000000Y-124000000D01*
%TO.N,Net-(Q2-B)*%
X134000000Y-119000000D02*
X136000000Y-119000000D01*
X134000000Y-119000000D02*
X134000000Y-121000000D01*
D18*
X139700000Y-121600000D02*
X139000000Y-121600000D01*
X139000000Y-121600000D02*
X138400000Y-121600000D01*
D17*
X127500000Y-119000000D02*
X134000000Y-119000000D01*
X137500000Y-117000000D02*
X138000000Y-116500000D01*
X136000000Y-117000000D02*
X137500000Y-117000000D01*
X134000000Y-121000000D02*
X134000000Y-122000000D01*
X134000000Y-122000000D02*
X134000000Y-123500000D01*
X136000000Y-119000000D02*
X136000000Y-117000000D01*
%TO.N,Net-(Q1-C)*%
D18*
X140350000Y-127000000D02*
X140350000Y-126650000D01*
D17*
X141600000Y-122600000D02*
X141600000Y-125400000D01*
D19*
X141600000Y-121600000D02*
X141600000Y-122600000D01*
D18*
X141000000Y-121600000D02*
X141600000Y-121600000D01*
D17*
X141600000Y-125400000D02*
X140350000Y-126650000D01*
%TO.N,Net-(Q1-E)*%
D20*
X142000000Y-129000000D02*
X142000000Y-134500000D01*
D21*
X141000000Y-128600000D02*
X141600000Y-128600000D01*
D17*
X145400000Y-134500000D02*
X146000000Y-135100000D01*
X142000000Y-134500000D02*
X145400000Y-134500000D01*
D20*
X141600000Y-128600000D02*
X142000000Y-129000000D01*
%TO.N,Net-(Q1-B)*%
D17*
X138000000Y-134200000D02*
X136900000Y-133100000D01*
X139400000Y-128600000D02*
X134400000Y-128600000D01*
D21*
X139700000Y-128600000D02*
X139400000Y-128600000D01*
D17*
X134400000Y-128600000D02*
X134000000Y-129000000D01*
X134000000Y-128000000D02*
X134000000Y-129000000D01*
X134000000Y-129000000D02*
X134000000Y-129800000D01*
X134000000Y-126500000D02*
X134000000Y-128000000D01*
X138000000Y-134500000D02*
X138000000Y-134200000D01*
X134000000Y-129800000D02*
X133800000Y-130000000D01*
X136900000Y-133100000D02*
X133800000Y-130000000D01*
%TO.N,/VDC*%
X138000000Y-113500000D02*
X133100000Y-113500000D01*
X147500000Y-113500000D02*
X148000000Y-114000000D01*
X127797630Y-113600000D02*
X127625524Y-113772106D01*
X138000000Y-113500000D02*
X147500000Y-113500000D01*
X133000000Y-113600000D02*
X127797630Y-113600000D01*
X133100000Y-113500000D02*
X133000000Y-113600000D01*
%TO.N,GND*%
X132000000Y-137500000D02*
X138000000Y-137500000D01*
X138000000Y-137500000D02*
X142000000Y-137500000D01*
X145900000Y-137500000D02*
X146000000Y-137400000D01*
X126297919Y-137500000D02*
X132000000Y-137500000D01*
X125000000Y-135000000D02*
X125000000Y-136202081D01*
X142000000Y-137500000D02*
X145900000Y-137500000D01*
X145000000Y-126500000D02*
X150000000Y-126500000D01*
%TO.N,Net-(Q2-C)*%
X143000000Y-119000000D02*
X150000000Y-119000000D01*
%TO.N,/Oscilloscope*%
X145000000Y-123500000D02*
X150000000Y-123500000D01*
%TO.N,GND*%
X150000000Y-136000000D02*
X148500000Y-137500000D01*
%TD*%
M02*
