%TF.GenerationSoftware,KiCad,Pcbnew,10.0.3-10.0.3~ubuntu24.04.1*%
%TF.CreationDate,2026-06-25T15:13:20-04:00*%
%TF.ProjectId,G2_MPPC_Readout,47325f4d-5050-4435-9f52-6561646f7574,rev?*%
%TF.SameCoordinates,Original*%
%TF.FileFunction,Legend,Top*%
%TF.FilePolarity,Positive*%
%FSLAX46Y46*%
G04 Gerber Fmt 4.6, Leading zero omitted, Abs format (unit mm)*
G04 Created by KiCad (PCBNEW 10.0.3-10.0.3~ubuntu24.04.1) date 2026-06-25 15:13:20*
%MOMM*%
%LPD*%
G01*
G04 APERTURE LIST*
%ADD10C,0.254000*%
%ADD11C,0.150000*%
%ADD12C,0.200000*%
%ADD13C,0.100000*%
%ADD14C,0.120000*%
G04 APERTURE END LIST*
D10*
X146574318Y-130211666D02*
X145969556Y-130635000D01*
X146574318Y-130937381D02*
X145304318Y-130937381D01*
X145304318Y-130937381D02*
X145304318Y-130453571D01*
X145304318Y-130453571D02*
X145364794Y-130332619D01*
X145364794Y-130332619D02*
X145425270Y-130272142D01*
X145425270Y-130272142D02*
X145546222Y-130211666D01*
X145546222Y-130211666D02*
X145727651Y-130211666D01*
X145727651Y-130211666D02*
X145848603Y-130272142D01*
X145848603Y-130272142D02*
X145909080Y-130332619D01*
X145909080Y-130332619D02*
X145969556Y-130453571D01*
X145969556Y-130453571D02*
X145969556Y-130937381D01*
X145425270Y-129727857D02*
X145364794Y-129667381D01*
X145364794Y-129667381D02*
X145304318Y-129546428D01*
X145304318Y-129546428D02*
X145304318Y-129244047D01*
X145304318Y-129244047D02*
X145364794Y-129123095D01*
X145364794Y-129123095D02*
X145425270Y-129062619D01*
X145425270Y-129062619D02*
X145546222Y-129002142D01*
X145546222Y-129002142D02*
X145667175Y-129002142D01*
X145667175Y-129002142D02*
X145848603Y-129062619D01*
X145848603Y-129062619D02*
X146574318Y-129788333D01*
X146574318Y-129788333D02*
X146574318Y-129002142D01*
X148744048Y-114574318D02*
X148320714Y-113969556D01*
X148018333Y-114574318D02*
X148018333Y-113304318D01*
X148018333Y-113304318D02*
X148502143Y-113304318D01*
X148502143Y-113304318D02*
X148623095Y-113364794D01*
X148623095Y-113364794D02*
X148683572Y-113425270D01*
X148683572Y-113425270D02*
X148744048Y-113546222D01*
X148744048Y-113546222D02*
X148744048Y-113727651D01*
X148744048Y-113727651D02*
X148683572Y-113848603D01*
X148683572Y-113848603D02*
X148623095Y-113909080D01*
X148623095Y-113909080D02*
X148502143Y-113969556D01*
X148502143Y-113969556D02*
X148018333Y-113969556D01*
X149832619Y-114513842D02*
X149711667Y-114574318D01*
X149711667Y-114574318D02*
X149469762Y-114574318D01*
X149469762Y-114574318D02*
X149348810Y-114513842D01*
X149348810Y-114513842D02*
X149288333Y-114453365D01*
X149288333Y-114453365D02*
X149227857Y-114332413D01*
X149227857Y-114332413D02*
X149227857Y-113969556D01*
X149227857Y-113969556D02*
X149288333Y-113848603D01*
X149288333Y-113848603D02*
X149348810Y-113788127D01*
X149348810Y-113788127D02*
X149469762Y-113727651D01*
X149469762Y-113727651D02*
X149711667Y-113727651D01*
X149711667Y-113727651D02*
X149832619Y-113788127D01*
X151042143Y-114574318D02*
X150316428Y-114574318D01*
X150679285Y-114574318D02*
X150679285Y-113304318D01*
X150679285Y-113304318D02*
X150558333Y-113485746D01*
X150558333Y-113485746D02*
X150437381Y-113606699D01*
X150437381Y-113606699D02*
X150316428Y-113667175D01*
X140229047Y-128495270D02*
X140108095Y-128434794D01*
X140108095Y-128434794D02*
X139987142Y-128313842D01*
X139987142Y-128313842D02*
X139805714Y-128132413D01*
X139805714Y-128132413D02*
X139684761Y-128071937D01*
X139684761Y-128071937D02*
X139563809Y-128071937D01*
X139624285Y-128374318D02*
X139503333Y-128313842D01*
X139503333Y-128313842D02*
X139382380Y-128192889D01*
X139382380Y-128192889D02*
X139321904Y-127950984D01*
X139321904Y-127950984D02*
X139321904Y-127527651D01*
X139321904Y-127527651D02*
X139382380Y-127285746D01*
X139382380Y-127285746D02*
X139503333Y-127164794D01*
X139503333Y-127164794D02*
X139624285Y-127104318D01*
X139624285Y-127104318D02*
X139866190Y-127104318D01*
X139866190Y-127104318D02*
X139987142Y-127164794D01*
X139987142Y-127164794D02*
X140108095Y-127285746D01*
X140108095Y-127285746D02*
X140168571Y-127527651D01*
X140168571Y-127527651D02*
X140168571Y-127950984D01*
X140168571Y-127950984D02*
X140108095Y-128192889D01*
X140108095Y-128192889D02*
X139987142Y-128313842D01*
X139987142Y-128313842D02*
X139866190Y-128374318D01*
X139866190Y-128374318D02*
X139624285Y-128374318D01*
X141378095Y-128374318D02*
X140652380Y-128374318D01*
X141015237Y-128374318D02*
X141015237Y-127104318D01*
X141015237Y-127104318D02*
X140894285Y-127285746D01*
X140894285Y-127285746D02*
X140773333Y-127406699D01*
X140773333Y-127406699D02*
X140652380Y-127467175D01*
X151574318Y-130211666D02*
X150969556Y-130635000D01*
X151574318Y-130937381D02*
X150304318Y-130937381D01*
X150304318Y-130937381D02*
X150304318Y-130453571D01*
X150304318Y-130453571D02*
X150364794Y-130332619D01*
X150364794Y-130332619D02*
X150425270Y-130272142D01*
X150425270Y-130272142D02*
X150546222Y-130211666D01*
X150546222Y-130211666D02*
X150727651Y-130211666D01*
X150727651Y-130211666D02*
X150848603Y-130272142D01*
X150848603Y-130272142D02*
X150909080Y-130332619D01*
X150909080Y-130332619D02*
X150969556Y-130453571D01*
X150969556Y-130453571D02*
X150969556Y-130937381D01*
X150304318Y-129788333D02*
X150304318Y-129002142D01*
X150304318Y-129002142D02*
X150788127Y-129425476D01*
X150788127Y-129425476D02*
X150788127Y-129244047D01*
X150788127Y-129244047D02*
X150848603Y-129123095D01*
X150848603Y-129123095D02*
X150909080Y-129062619D01*
X150909080Y-129062619D02*
X151030032Y-129002142D01*
X151030032Y-129002142D02*
X151332413Y-129002142D01*
X151332413Y-129002142D02*
X151453365Y-129062619D01*
X151453365Y-129062619D02*
X151513842Y-129123095D01*
X151513842Y-129123095D02*
X151574318Y-129244047D01*
X151574318Y-129244047D02*
X151574318Y-129606904D01*
X151574318Y-129606904D02*
X151513842Y-129727857D01*
X151513842Y-129727857D02*
X151453365Y-129788333D01*
X140229047Y-121495270D02*
X140108095Y-121434794D01*
X140108095Y-121434794D02*
X139987142Y-121313842D01*
X139987142Y-121313842D02*
X139805714Y-121132413D01*
X139805714Y-121132413D02*
X139684761Y-121071937D01*
X139684761Y-121071937D02*
X139563809Y-121071937D01*
X139624285Y-121374318D02*
X139503333Y-121313842D01*
X139503333Y-121313842D02*
X139382380Y-121192889D01*
X139382380Y-121192889D02*
X139321904Y-120950984D01*
X139321904Y-120950984D02*
X139321904Y-120527651D01*
X139321904Y-120527651D02*
X139382380Y-120285746D01*
X139382380Y-120285746D02*
X139503333Y-120164794D01*
X139503333Y-120164794D02*
X139624285Y-120104318D01*
X139624285Y-120104318D02*
X139866190Y-120104318D01*
X139866190Y-120104318D02*
X139987142Y-120164794D01*
X139987142Y-120164794D02*
X140108095Y-120285746D01*
X140108095Y-120285746D02*
X140168571Y-120527651D01*
X140168571Y-120527651D02*
X140168571Y-120950984D01*
X140168571Y-120950984D02*
X140108095Y-121192889D01*
X140108095Y-121192889D02*
X139987142Y-121313842D01*
X139987142Y-121313842D02*
X139866190Y-121374318D01*
X139866190Y-121374318D02*
X139624285Y-121374318D01*
X140652380Y-120225270D02*
X140712856Y-120164794D01*
X140712856Y-120164794D02*
X140833809Y-120104318D01*
X140833809Y-120104318D02*
X141136190Y-120104318D01*
X141136190Y-120104318D02*
X141257142Y-120164794D01*
X141257142Y-120164794D02*
X141317618Y-120225270D01*
X141317618Y-120225270D02*
X141378095Y-120346222D01*
X141378095Y-120346222D02*
X141378095Y-120467175D01*
X141378095Y-120467175D02*
X141317618Y-120648603D01*
X141317618Y-120648603D02*
X140591904Y-121374318D01*
X140591904Y-121374318D02*
X141378095Y-121374318D01*
X131674286Y-130453365D02*
X131613810Y-130513842D01*
X131613810Y-130513842D02*
X131432381Y-130574318D01*
X131432381Y-130574318D02*
X131311429Y-130574318D01*
X131311429Y-130574318D02*
X131130000Y-130513842D01*
X131130000Y-130513842D02*
X131009048Y-130392889D01*
X131009048Y-130392889D02*
X130948571Y-130271937D01*
X130948571Y-130271937D02*
X130888095Y-130030032D01*
X130888095Y-130030032D02*
X130888095Y-129848603D01*
X130888095Y-129848603D02*
X130948571Y-129606699D01*
X130948571Y-129606699D02*
X131009048Y-129485746D01*
X131009048Y-129485746D02*
X131130000Y-129364794D01*
X131130000Y-129364794D02*
X131311429Y-129304318D01*
X131311429Y-129304318D02*
X131432381Y-129304318D01*
X131432381Y-129304318D02*
X131613810Y-129364794D01*
X131613810Y-129364794D02*
X131674286Y-129425270D01*
X132158095Y-130513842D02*
X132279048Y-130574318D01*
X132279048Y-130574318D02*
X132520952Y-130574318D01*
X132520952Y-130574318D02*
X132641905Y-130513842D01*
X132641905Y-130513842D02*
X132702381Y-130392889D01*
X132702381Y-130392889D02*
X132702381Y-130332413D01*
X132702381Y-130332413D02*
X132641905Y-130211461D01*
X132641905Y-130211461D02*
X132520952Y-130150984D01*
X132520952Y-130150984D02*
X132339524Y-130150984D01*
X132339524Y-130150984D02*
X132218571Y-130090508D01*
X132218571Y-130090508D02*
X132158095Y-129969556D01*
X132158095Y-129969556D02*
X132158095Y-129909080D01*
X132158095Y-129909080D02*
X132218571Y-129788127D01*
X132218571Y-129788127D02*
X132339524Y-129727651D01*
X132339524Y-129727651D02*
X132520952Y-129727651D01*
X132520952Y-129727651D02*
X132641905Y-129788127D01*
X133911905Y-130574318D02*
X133186190Y-130574318D01*
X133549047Y-130574318D02*
X133549047Y-129304318D01*
X133549047Y-129304318D02*
X133428095Y-129485746D01*
X133428095Y-129485746D02*
X133307143Y-129606699D01*
X133307143Y-129606699D02*
X133186190Y-129667175D01*
X134574318Y-125211666D02*
X133969556Y-125635000D01*
X134574318Y-125937381D02*
X133304318Y-125937381D01*
X133304318Y-125937381D02*
X133304318Y-125453571D01*
X133304318Y-125453571D02*
X133364794Y-125332619D01*
X133364794Y-125332619D02*
X133425270Y-125272142D01*
X133425270Y-125272142D02*
X133546222Y-125211666D01*
X133546222Y-125211666D02*
X133727651Y-125211666D01*
X133727651Y-125211666D02*
X133848603Y-125272142D01*
X133848603Y-125272142D02*
X133909080Y-125332619D01*
X133909080Y-125332619D02*
X133969556Y-125453571D01*
X133969556Y-125453571D02*
X133969556Y-125937381D01*
X134574318Y-124002142D02*
X134574318Y-124727857D01*
X134574318Y-124365000D02*
X133304318Y-124365000D01*
X133304318Y-124365000D02*
X133485746Y-124485952D01*
X133485746Y-124485952D02*
X133606699Y-124606904D01*
X133606699Y-124606904D02*
X133667175Y-124727857D01*
X132574318Y-136786190D02*
X131969556Y-137209524D01*
X132574318Y-137511905D02*
X131304318Y-137511905D01*
X131304318Y-137511905D02*
X131304318Y-137028095D01*
X131304318Y-137028095D02*
X131364794Y-136907143D01*
X131364794Y-136907143D02*
X131425270Y-136846666D01*
X131425270Y-136846666D02*
X131546222Y-136786190D01*
X131546222Y-136786190D02*
X131727651Y-136786190D01*
X131727651Y-136786190D02*
X131848603Y-136846666D01*
X131848603Y-136846666D02*
X131909080Y-136907143D01*
X131909080Y-136907143D02*
X131969556Y-137028095D01*
X131969556Y-137028095D02*
X131969556Y-137511905D01*
X132574318Y-136241905D02*
X131304318Y-136241905D01*
X131788127Y-136241905D02*
X131727651Y-136120952D01*
X131727651Y-136120952D02*
X131727651Y-135879047D01*
X131727651Y-135879047D02*
X131788127Y-135758095D01*
X131788127Y-135758095D02*
X131848603Y-135697619D01*
X131848603Y-135697619D02*
X131969556Y-135637143D01*
X131969556Y-135637143D02*
X132332413Y-135637143D01*
X132332413Y-135637143D02*
X132453365Y-135697619D01*
X132453365Y-135697619D02*
X132513842Y-135758095D01*
X132513842Y-135758095D02*
X132574318Y-135879047D01*
X132574318Y-135879047D02*
X132574318Y-136120952D01*
X132574318Y-136120952D02*
X132513842Y-136241905D01*
X131425270Y-135153333D02*
X131364794Y-135092857D01*
X131364794Y-135092857D02*
X131304318Y-134971904D01*
X131304318Y-134971904D02*
X131304318Y-134669523D01*
X131304318Y-134669523D02*
X131364794Y-134548571D01*
X131364794Y-134548571D02*
X131425270Y-134488095D01*
X131425270Y-134488095D02*
X131546222Y-134427618D01*
X131546222Y-134427618D02*
X131667175Y-134427618D01*
X131667175Y-134427618D02*
X131848603Y-134488095D01*
X131848603Y-134488095D02*
X132574318Y-135213809D01*
X132574318Y-135213809D02*
X132574318Y-134427618D01*
X138574318Y-136786190D02*
X137969556Y-137209524D01*
X138574318Y-137511905D02*
X137304318Y-137511905D01*
X137304318Y-137511905D02*
X137304318Y-137028095D01*
X137304318Y-137028095D02*
X137364794Y-136907143D01*
X137364794Y-136907143D02*
X137425270Y-136846666D01*
X137425270Y-136846666D02*
X137546222Y-136786190D01*
X137546222Y-136786190D02*
X137727651Y-136786190D01*
X137727651Y-136786190D02*
X137848603Y-136846666D01*
X137848603Y-136846666D02*
X137909080Y-136907143D01*
X137909080Y-136907143D02*
X137969556Y-137028095D01*
X137969556Y-137028095D02*
X137969556Y-137511905D01*
X138574318Y-136241905D02*
X137304318Y-136241905D01*
X137788127Y-136241905D02*
X137727651Y-136120952D01*
X137727651Y-136120952D02*
X137727651Y-135879047D01*
X137727651Y-135879047D02*
X137788127Y-135758095D01*
X137788127Y-135758095D02*
X137848603Y-135697619D01*
X137848603Y-135697619D02*
X137969556Y-135637143D01*
X137969556Y-135637143D02*
X138332413Y-135637143D01*
X138332413Y-135637143D02*
X138453365Y-135697619D01*
X138453365Y-135697619D02*
X138513842Y-135758095D01*
X138513842Y-135758095D02*
X138574318Y-135879047D01*
X138574318Y-135879047D02*
X138574318Y-136120952D01*
X138574318Y-136120952D02*
X138513842Y-136241905D01*
X138574318Y-134427618D02*
X138574318Y-135153333D01*
X138574318Y-134790476D02*
X137304318Y-134790476D01*
X137304318Y-134790476D02*
X137485746Y-134911428D01*
X137485746Y-134911428D02*
X137606699Y-135032380D01*
X137606699Y-135032380D02*
X137667175Y-135153333D01*
X142574318Y-136725713D02*
X141969556Y-137149047D01*
X142574318Y-137451428D02*
X141304318Y-137451428D01*
X141304318Y-137451428D02*
X141304318Y-136967618D01*
X141304318Y-136967618D02*
X141364794Y-136846666D01*
X141364794Y-136846666D02*
X141425270Y-136786189D01*
X141425270Y-136786189D02*
X141546222Y-136725713D01*
X141546222Y-136725713D02*
X141727651Y-136725713D01*
X141727651Y-136725713D02*
X141848603Y-136786189D01*
X141848603Y-136786189D02*
X141909080Y-136846666D01*
X141909080Y-136846666D02*
X141969556Y-136967618D01*
X141969556Y-136967618D02*
X141969556Y-137451428D01*
X142574318Y-135576666D02*
X142574318Y-136181428D01*
X142574318Y-136181428D02*
X141304318Y-136181428D01*
X142574318Y-134488094D02*
X142574318Y-135213809D01*
X142574318Y-134850952D02*
X141304318Y-134850952D01*
X141304318Y-134850952D02*
X141485746Y-134971904D01*
X141485746Y-134971904D02*
X141606699Y-135092856D01*
X141606699Y-135092856D02*
X141667175Y-135213809D01*
X146453365Y-136211666D02*
X146513842Y-136272142D01*
X146513842Y-136272142D02*
X146574318Y-136453571D01*
X146574318Y-136453571D02*
X146574318Y-136574523D01*
X146574318Y-136574523D02*
X146513842Y-136755952D01*
X146513842Y-136755952D02*
X146392889Y-136876904D01*
X146392889Y-136876904D02*
X146271937Y-136937381D01*
X146271937Y-136937381D02*
X146030032Y-136997857D01*
X146030032Y-136997857D02*
X145848603Y-136997857D01*
X145848603Y-136997857D02*
X145606699Y-136937381D01*
X145606699Y-136937381D02*
X145485746Y-136876904D01*
X145485746Y-136876904D02*
X145364794Y-136755952D01*
X145364794Y-136755952D02*
X145304318Y-136574523D01*
X145304318Y-136574523D02*
X145304318Y-136453571D01*
X145304318Y-136453571D02*
X145364794Y-136272142D01*
X145364794Y-136272142D02*
X145425270Y-136211666D01*
X146574318Y-135002142D02*
X146574318Y-135727857D01*
X146574318Y-135365000D02*
X145304318Y-135365000D01*
X145304318Y-135365000D02*
X145485746Y-135485952D01*
X145485746Y-135485952D02*
X145606699Y-135606904D01*
X145606699Y-135606904D02*
X145667175Y-135727857D01*
X126388333Y-119453365D02*
X126327857Y-119513842D01*
X126327857Y-119513842D02*
X126146428Y-119574318D01*
X126146428Y-119574318D02*
X126025476Y-119574318D01*
X126025476Y-119574318D02*
X125844047Y-119513842D01*
X125844047Y-119513842D02*
X125723095Y-119392889D01*
X125723095Y-119392889D02*
X125662618Y-119271937D01*
X125662618Y-119271937D02*
X125602142Y-119030032D01*
X125602142Y-119030032D02*
X125602142Y-118848603D01*
X125602142Y-118848603D02*
X125662618Y-118606699D01*
X125662618Y-118606699D02*
X125723095Y-118485746D01*
X125723095Y-118485746D02*
X125844047Y-118364794D01*
X125844047Y-118364794D02*
X126025476Y-118304318D01*
X126025476Y-118304318D02*
X126146428Y-118304318D01*
X126146428Y-118304318D02*
X126327857Y-118364794D01*
X126327857Y-118364794D02*
X126388333Y-118425270D01*
X126872142Y-118425270D02*
X126932618Y-118364794D01*
X126932618Y-118364794D02*
X127053571Y-118304318D01*
X127053571Y-118304318D02*
X127355952Y-118304318D01*
X127355952Y-118304318D02*
X127476904Y-118364794D01*
X127476904Y-118364794D02*
X127537380Y-118425270D01*
X127537380Y-118425270D02*
X127597857Y-118546222D01*
X127597857Y-118546222D02*
X127597857Y-118667175D01*
X127597857Y-118667175D02*
X127537380Y-118848603D01*
X127537380Y-118848603D02*
X126811666Y-119574318D01*
X126811666Y-119574318D02*
X127597857Y-119574318D01*
X150453365Y-124355951D02*
X150513842Y-124416427D01*
X150513842Y-124416427D02*
X150574318Y-124597856D01*
X150574318Y-124597856D02*
X150574318Y-124718808D01*
X150574318Y-124718808D02*
X150513842Y-124900237D01*
X150513842Y-124900237D02*
X150392889Y-125021189D01*
X150392889Y-125021189D02*
X150271937Y-125081666D01*
X150271937Y-125081666D02*
X150030032Y-125142142D01*
X150030032Y-125142142D02*
X149848603Y-125142142D01*
X149848603Y-125142142D02*
X149606699Y-125081666D01*
X149606699Y-125081666D02*
X149485746Y-125021189D01*
X149485746Y-125021189D02*
X149364794Y-124900237D01*
X149364794Y-124900237D02*
X149304318Y-124718808D01*
X149304318Y-124718808D02*
X149304318Y-124597856D01*
X149304318Y-124597856D02*
X149364794Y-124416427D01*
X149364794Y-124416427D02*
X149425270Y-124355951D01*
X150513842Y-123267380D02*
X150574318Y-123388332D01*
X150574318Y-123388332D02*
X150574318Y-123630237D01*
X150574318Y-123630237D02*
X150513842Y-123751189D01*
X150513842Y-123751189D02*
X150453365Y-123811666D01*
X150453365Y-123811666D02*
X150332413Y-123872142D01*
X150332413Y-123872142D02*
X149969556Y-123872142D01*
X149969556Y-123872142D02*
X149848603Y-123811666D01*
X149848603Y-123811666D02*
X149788127Y-123751189D01*
X149788127Y-123751189D02*
X149727651Y-123630237D01*
X149727651Y-123630237D02*
X149727651Y-123388332D01*
X149727651Y-123388332D02*
X149788127Y-123267380D01*
X150574318Y-122057856D02*
X150574318Y-122783571D01*
X150574318Y-122420714D02*
X149304318Y-122420714D01*
X149304318Y-122420714D02*
X149485746Y-122541666D01*
X149485746Y-122541666D02*
X149606699Y-122662618D01*
X149606699Y-122662618D02*
X149667175Y-122783571D01*
D11*
X130374819Y-140000000D02*
X129374819Y-140000000D01*
X129851009Y-140000000D02*
X129851009Y-139428572D01*
X130374819Y-139428572D02*
X129374819Y-139428572D01*
X130374819Y-138952381D02*
X129708152Y-138952381D01*
X129374819Y-138952381D02*
X129422438Y-139000000D01*
X129422438Y-139000000D02*
X129470057Y-138952381D01*
X129470057Y-138952381D02*
X129422438Y-138904762D01*
X129422438Y-138904762D02*
X129374819Y-138952381D01*
X129374819Y-138952381D02*
X129470057Y-138952381D01*
X129708152Y-138047620D02*
X130517676Y-138047620D01*
X130517676Y-138047620D02*
X130612914Y-138095239D01*
X130612914Y-138095239D02*
X130660533Y-138142858D01*
X130660533Y-138142858D02*
X130708152Y-138238096D01*
X130708152Y-138238096D02*
X130708152Y-138380953D01*
X130708152Y-138380953D02*
X130660533Y-138476191D01*
X130327200Y-138047620D02*
X130374819Y-138142858D01*
X130374819Y-138142858D02*
X130374819Y-138333334D01*
X130374819Y-138333334D02*
X130327200Y-138428572D01*
X130327200Y-138428572D02*
X130279580Y-138476191D01*
X130279580Y-138476191D02*
X130184342Y-138523810D01*
X130184342Y-138523810D02*
X129898628Y-138523810D01*
X129898628Y-138523810D02*
X129803390Y-138476191D01*
X129803390Y-138476191D02*
X129755771Y-138428572D01*
X129755771Y-138428572D02*
X129708152Y-138333334D01*
X129708152Y-138333334D02*
X129708152Y-138142858D01*
X129708152Y-138142858D02*
X129755771Y-138047620D01*
X130374819Y-137571429D02*
X129374819Y-137571429D01*
X130374819Y-137142858D02*
X129851009Y-137142858D01*
X129851009Y-137142858D02*
X129755771Y-137190477D01*
X129755771Y-137190477D02*
X129708152Y-137285715D01*
X129708152Y-137285715D02*
X129708152Y-137428572D01*
X129708152Y-137428572D02*
X129755771Y-137523810D01*
X129755771Y-137523810D02*
X129803390Y-137571429D01*
X130470057Y-136904763D02*
X130470057Y-136142858D01*
X129708152Y-136000000D02*
X130374819Y-135761905D01*
X130374819Y-135761905D02*
X129708152Y-135523810D01*
X130374819Y-135000000D02*
X130327200Y-135095238D01*
X130327200Y-135095238D02*
X130279580Y-135142857D01*
X130279580Y-135142857D02*
X130184342Y-135190476D01*
X130184342Y-135190476D02*
X129898628Y-135190476D01*
X129898628Y-135190476D02*
X129803390Y-135142857D01*
X129803390Y-135142857D02*
X129755771Y-135095238D01*
X129755771Y-135095238D02*
X129708152Y-135000000D01*
X129708152Y-135000000D02*
X129708152Y-134857143D01*
X129708152Y-134857143D02*
X129755771Y-134761905D01*
X129755771Y-134761905D02*
X129803390Y-134714286D01*
X129803390Y-134714286D02*
X129898628Y-134666667D01*
X129898628Y-134666667D02*
X130184342Y-134666667D01*
X130184342Y-134666667D02*
X130279580Y-134714286D01*
X130279580Y-134714286D02*
X130327200Y-134761905D01*
X130327200Y-134761905D02*
X130374819Y-134857143D01*
X130374819Y-134857143D02*
X130374819Y-135000000D01*
X130374819Y-134095238D02*
X130327200Y-134190476D01*
X130327200Y-134190476D02*
X130231961Y-134238095D01*
X130231961Y-134238095D02*
X129374819Y-134238095D01*
X129708152Y-133857142D02*
X129708152Y-133476190D01*
X129374819Y-133714285D02*
X130231961Y-133714285D01*
X130231961Y-133714285D02*
X130327200Y-133666666D01*
X130327200Y-133666666D02*
X130374819Y-133571428D01*
X130374819Y-133571428D02*
X130374819Y-133476190D01*
X130374819Y-132714285D02*
X129851009Y-132714285D01*
X129851009Y-132714285D02*
X129755771Y-132761904D01*
X129755771Y-132761904D02*
X129708152Y-132857142D01*
X129708152Y-132857142D02*
X129708152Y-133047618D01*
X129708152Y-133047618D02*
X129755771Y-133142856D01*
X130327200Y-132714285D02*
X130374819Y-132809523D01*
X130374819Y-132809523D02*
X130374819Y-133047618D01*
X130374819Y-133047618D02*
X130327200Y-133142856D01*
X130327200Y-133142856D02*
X130231961Y-133190475D01*
X130231961Y-133190475D02*
X130136723Y-133190475D01*
X130136723Y-133190475D02*
X130041485Y-133142856D01*
X130041485Y-133142856D02*
X129993866Y-133047618D01*
X129993866Y-133047618D02*
X129993866Y-132809523D01*
X129993866Y-132809523D02*
X129946247Y-132714285D01*
X129708152Y-131809523D02*
X130517676Y-131809523D01*
X130517676Y-131809523D02*
X130612914Y-131857142D01*
X130612914Y-131857142D02*
X130660533Y-131904761D01*
X130660533Y-131904761D02*
X130708152Y-131999999D01*
X130708152Y-131999999D02*
X130708152Y-132142856D01*
X130708152Y-132142856D02*
X130660533Y-132238094D01*
X130327200Y-131809523D02*
X130374819Y-131904761D01*
X130374819Y-131904761D02*
X130374819Y-132095237D01*
X130374819Y-132095237D02*
X130327200Y-132190475D01*
X130327200Y-132190475D02*
X130279580Y-132238094D01*
X130279580Y-132238094D02*
X130184342Y-132285713D01*
X130184342Y-132285713D02*
X129898628Y-132285713D01*
X129898628Y-132285713D02*
X129803390Y-132238094D01*
X129803390Y-132238094D02*
X129755771Y-132190475D01*
X129755771Y-132190475D02*
X129708152Y-132095237D01*
X129708152Y-132095237D02*
X129708152Y-131904761D01*
X129708152Y-131904761D02*
X129755771Y-131809523D01*
X130327200Y-130952380D02*
X130374819Y-131047618D01*
X130374819Y-131047618D02*
X130374819Y-131238094D01*
X130374819Y-131238094D02*
X130327200Y-131333332D01*
X130327200Y-131333332D02*
X130231961Y-131380951D01*
X130231961Y-131380951D02*
X129851009Y-131380951D01*
X129851009Y-131380951D02*
X129755771Y-131333332D01*
X129755771Y-131333332D02*
X129708152Y-131238094D01*
X129708152Y-131238094D02*
X129708152Y-131047618D01*
X129708152Y-131047618D02*
X129755771Y-130952380D01*
X129755771Y-130952380D02*
X129851009Y-130904761D01*
X129851009Y-130904761D02*
X129946247Y-130904761D01*
X129946247Y-130904761D02*
X130041485Y-131380951D01*
X130374819Y-129952380D02*
X130374819Y-130523808D01*
X130374819Y-130238094D02*
X129374819Y-130238094D01*
X129374819Y-130238094D02*
X129517676Y-130333332D01*
X129517676Y-130333332D02*
X129612914Y-130428570D01*
X129612914Y-130428570D02*
X129660533Y-130523808D01*
X129460343Y-120676868D02*
X130460343Y-120343535D01*
X130460343Y-120343535D02*
X129460343Y-120010202D01*
X130460343Y-119676868D02*
X129460343Y-119676868D01*
X129460343Y-119676868D02*
X129460343Y-119438773D01*
X129460343Y-119438773D02*
X129507962Y-119295916D01*
X129507962Y-119295916D02*
X129603200Y-119200678D01*
X129603200Y-119200678D02*
X129698438Y-119153059D01*
X129698438Y-119153059D02*
X129888914Y-119105440D01*
X129888914Y-119105440D02*
X130031771Y-119105440D01*
X130031771Y-119105440D02*
X130222247Y-119153059D01*
X130222247Y-119153059D02*
X130317485Y-119200678D01*
X130317485Y-119200678D02*
X130412724Y-119295916D01*
X130412724Y-119295916D02*
X130460343Y-119438773D01*
X130460343Y-119438773D02*
X130460343Y-119676868D01*
X130365104Y-118105440D02*
X130412724Y-118153059D01*
X130412724Y-118153059D02*
X130460343Y-118295916D01*
X130460343Y-118295916D02*
X130460343Y-118391154D01*
X130460343Y-118391154D02*
X130412724Y-118534011D01*
X130412724Y-118534011D02*
X130317485Y-118629249D01*
X130317485Y-118629249D02*
X130222247Y-118676868D01*
X130222247Y-118676868D02*
X130031771Y-118724487D01*
X130031771Y-118724487D02*
X129888914Y-118724487D01*
X129888914Y-118724487D02*
X129698438Y-118676868D01*
X129698438Y-118676868D02*
X129603200Y-118629249D01*
X129603200Y-118629249D02*
X129507962Y-118534011D01*
X129507962Y-118534011D02*
X129460343Y-118391154D01*
X129460343Y-118391154D02*
X129460343Y-118295916D01*
X129460343Y-118295916D02*
X129507962Y-118153059D01*
X129507962Y-118153059D02*
X129555581Y-118105440D01*
X130079390Y-117676868D02*
X130079390Y-116914964D01*
X130460343Y-115962583D02*
X130460343Y-116438773D01*
X130460343Y-116438773D02*
X129460343Y-116438773D01*
X130460343Y-115486392D02*
X130412724Y-115581630D01*
X130412724Y-115581630D02*
X130365104Y-115629249D01*
X130365104Y-115629249D02*
X130269866Y-115676868D01*
X130269866Y-115676868D02*
X129984152Y-115676868D01*
X129984152Y-115676868D02*
X129888914Y-115629249D01*
X129888914Y-115629249D02*
X129841295Y-115581630D01*
X129841295Y-115581630D02*
X129793676Y-115486392D01*
X129793676Y-115486392D02*
X129793676Y-115343535D01*
X129793676Y-115343535D02*
X129841295Y-115248297D01*
X129841295Y-115248297D02*
X129888914Y-115200678D01*
X129888914Y-115200678D02*
X129984152Y-115153059D01*
X129984152Y-115153059D02*
X130269866Y-115153059D01*
X130269866Y-115153059D02*
X130365104Y-115200678D01*
X130365104Y-115200678D02*
X130412724Y-115248297D01*
X130412724Y-115248297D02*
X130460343Y-115343535D01*
X130460343Y-115343535D02*
X130460343Y-115486392D01*
X129793676Y-114819725D02*
X130460343Y-114629249D01*
X130460343Y-114629249D02*
X129984152Y-114438773D01*
X129984152Y-114438773D02*
X130460343Y-114248297D01*
X130460343Y-114248297D02*
X129793676Y-114057821D01*
X130555581Y-113914964D02*
X130555581Y-113153059D01*
X129793676Y-113010201D02*
X130460343Y-112772106D01*
X130460343Y-112772106D02*
X129793676Y-112534011D01*
X130460343Y-112010201D02*
X130412724Y-112105439D01*
X130412724Y-112105439D02*
X130365104Y-112153058D01*
X130365104Y-112153058D02*
X130269866Y-112200677D01*
X130269866Y-112200677D02*
X129984152Y-112200677D01*
X129984152Y-112200677D02*
X129888914Y-112153058D01*
X129888914Y-112153058D02*
X129841295Y-112105439D01*
X129841295Y-112105439D02*
X129793676Y-112010201D01*
X129793676Y-112010201D02*
X129793676Y-111867344D01*
X129793676Y-111867344D02*
X129841295Y-111772106D01*
X129841295Y-111772106D02*
X129888914Y-111724487D01*
X129888914Y-111724487D02*
X129984152Y-111676868D01*
X129984152Y-111676868D02*
X130269866Y-111676868D01*
X130269866Y-111676868D02*
X130365104Y-111724487D01*
X130365104Y-111724487D02*
X130412724Y-111772106D01*
X130412724Y-111772106D02*
X130460343Y-111867344D01*
X130460343Y-111867344D02*
X130460343Y-112010201D01*
X130460343Y-111105439D02*
X130412724Y-111200677D01*
X130412724Y-111200677D02*
X130317485Y-111248296D01*
X130317485Y-111248296D02*
X129460343Y-111248296D01*
X130460343Y-110295915D02*
X129936533Y-110295915D01*
X129936533Y-110295915D02*
X129841295Y-110343534D01*
X129841295Y-110343534D02*
X129793676Y-110438772D01*
X129793676Y-110438772D02*
X129793676Y-110629248D01*
X129793676Y-110629248D02*
X129841295Y-110724486D01*
X130412724Y-110295915D02*
X130460343Y-110391153D01*
X130460343Y-110391153D02*
X130460343Y-110629248D01*
X130460343Y-110629248D02*
X130412724Y-110724486D01*
X130412724Y-110724486D02*
X130317485Y-110772105D01*
X130317485Y-110772105D02*
X130222247Y-110772105D01*
X130222247Y-110772105D02*
X130127009Y-110724486D01*
X130127009Y-110724486D02*
X130079390Y-110629248D01*
X130079390Y-110629248D02*
X130079390Y-110391153D01*
X130079390Y-110391153D02*
X130031771Y-110295915D01*
X129793676Y-109962581D02*
X129793676Y-109581629D01*
X129460343Y-109819724D02*
X130317485Y-109819724D01*
X130317485Y-109819724D02*
X130412724Y-109772105D01*
X130412724Y-109772105D02*
X130460343Y-109676867D01*
X130460343Y-109676867D02*
X130460343Y-109581629D01*
X129793676Y-108819724D02*
X130603200Y-108819724D01*
X130603200Y-108819724D02*
X130698438Y-108867343D01*
X130698438Y-108867343D02*
X130746057Y-108914962D01*
X130746057Y-108914962D02*
X130793676Y-109010200D01*
X130793676Y-109010200D02*
X130793676Y-109153057D01*
X130793676Y-109153057D02*
X130746057Y-109248295D01*
X130412724Y-108819724D02*
X130460343Y-108914962D01*
X130460343Y-108914962D02*
X130460343Y-109105438D01*
X130460343Y-109105438D02*
X130412724Y-109200676D01*
X130412724Y-109200676D02*
X130365104Y-109248295D01*
X130365104Y-109248295D02*
X130269866Y-109295914D01*
X130269866Y-109295914D02*
X129984152Y-109295914D01*
X129984152Y-109295914D02*
X129888914Y-109248295D01*
X129888914Y-109248295D02*
X129841295Y-109200676D01*
X129841295Y-109200676D02*
X129793676Y-109105438D01*
X129793676Y-109105438D02*
X129793676Y-108914962D01*
X129793676Y-108914962D02*
X129841295Y-108819724D01*
X130412724Y-107962581D02*
X130460343Y-108057819D01*
X130460343Y-108057819D02*
X130460343Y-108248295D01*
X130460343Y-108248295D02*
X130412724Y-108343533D01*
X130412724Y-108343533D02*
X130317485Y-108391152D01*
X130317485Y-108391152D02*
X129936533Y-108391152D01*
X129936533Y-108391152D02*
X129841295Y-108343533D01*
X129841295Y-108343533D02*
X129793676Y-108248295D01*
X129793676Y-108248295D02*
X129793676Y-108057819D01*
X129793676Y-108057819D02*
X129841295Y-107962581D01*
X129841295Y-107962581D02*
X129936533Y-107914962D01*
X129936533Y-107914962D02*
X130031771Y-107914962D01*
X130031771Y-107914962D02*
X130127009Y-108391152D01*
X130460343Y-106962581D02*
X130460343Y-107534009D01*
X130460343Y-107248295D02*
X129460343Y-107248295D01*
X129460343Y-107248295D02*
X129603200Y-107343533D01*
X129603200Y-107343533D02*
X129698438Y-107438771D01*
X129698438Y-107438771D02*
X129746057Y-107534009D01*
D10*
X133453365Y-115211666D02*
X133513842Y-115272142D01*
X133513842Y-115272142D02*
X133574318Y-115453571D01*
X133574318Y-115453571D02*
X133574318Y-115574523D01*
X133574318Y-115574523D02*
X133513842Y-115755952D01*
X133513842Y-115755952D02*
X133392889Y-115876904D01*
X133392889Y-115876904D02*
X133271937Y-115937381D01*
X133271937Y-115937381D02*
X133030032Y-115997857D01*
X133030032Y-115997857D02*
X132848603Y-115997857D01*
X132848603Y-115997857D02*
X132606699Y-115937381D01*
X132606699Y-115937381D02*
X132485746Y-115876904D01*
X132485746Y-115876904D02*
X132364794Y-115755952D01*
X132364794Y-115755952D02*
X132304318Y-115574523D01*
X132304318Y-115574523D02*
X132304318Y-115453571D01*
X132304318Y-115453571D02*
X132364794Y-115272142D01*
X132364794Y-115272142D02*
X132425270Y-115211666D01*
X132304318Y-114788333D02*
X132304318Y-114002142D01*
X132304318Y-114002142D02*
X132788127Y-114425476D01*
X132788127Y-114425476D02*
X132788127Y-114244047D01*
X132788127Y-114244047D02*
X132848603Y-114123095D01*
X132848603Y-114123095D02*
X132909080Y-114062619D01*
X132909080Y-114062619D02*
X133030032Y-114002142D01*
X133030032Y-114002142D02*
X133332413Y-114002142D01*
X133332413Y-114002142D02*
X133453365Y-114062619D01*
X133453365Y-114062619D02*
X133513842Y-114123095D01*
X133513842Y-114123095D02*
X133574318Y-114244047D01*
X133574318Y-114244047D02*
X133574318Y-114606904D01*
X133574318Y-114606904D02*
X133513842Y-114727857D01*
X133513842Y-114727857D02*
X133453365Y-114788333D01*
X138574318Y-115786190D02*
X137969556Y-116209524D01*
X138574318Y-116511905D02*
X137304318Y-116511905D01*
X137304318Y-116511905D02*
X137304318Y-116028095D01*
X137304318Y-116028095D02*
X137364794Y-115907143D01*
X137364794Y-115907143D02*
X137425270Y-115846666D01*
X137425270Y-115846666D02*
X137546222Y-115786190D01*
X137546222Y-115786190D02*
X137727651Y-115786190D01*
X137727651Y-115786190D02*
X137848603Y-115846666D01*
X137848603Y-115846666D02*
X137909080Y-115907143D01*
X137909080Y-115907143D02*
X137969556Y-116028095D01*
X137969556Y-116028095D02*
X137969556Y-116511905D01*
X138574318Y-114697619D02*
X137909080Y-114697619D01*
X137909080Y-114697619D02*
X137788127Y-114758095D01*
X137788127Y-114758095D02*
X137727651Y-114879047D01*
X137727651Y-114879047D02*
X137727651Y-115120952D01*
X137727651Y-115120952D02*
X137788127Y-115241905D01*
X138513842Y-114697619D02*
X138574318Y-114818571D01*
X138574318Y-114818571D02*
X138574318Y-115120952D01*
X138574318Y-115120952D02*
X138513842Y-115241905D01*
X138513842Y-115241905D02*
X138392889Y-115302381D01*
X138392889Y-115302381D02*
X138271937Y-115302381D01*
X138271937Y-115302381D02*
X138150984Y-115241905D01*
X138150984Y-115241905D02*
X138090508Y-115120952D01*
X138090508Y-115120952D02*
X138090508Y-114818571D01*
X138090508Y-114818571D02*
X138030032Y-114697619D01*
X138574318Y-113427618D02*
X138574318Y-114153333D01*
X138574318Y-113790476D02*
X137304318Y-113790476D01*
X137304318Y-113790476D02*
X137485746Y-113911428D01*
X137485746Y-113911428D02*
X137606699Y-114032380D01*
X137606699Y-114032380D02*
X137667175Y-114153333D01*
D11*
X125690476Y-128834819D02*
X125690476Y-127834819D01*
X125690476Y-127834819D02*
X126023809Y-128549104D01*
X126023809Y-128549104D02*
X126357142Y-127834819D01*
X126357142Y-127834819D02*
X126357142Y-128834819D01*
X126833333Y-128834819D02*
X126833333Y-127834819D01*
X126833333Y-127834819D02*
X127214285Y-127834819D01*
X127214285Y-127834819D02*
X127309523Y-127882438D01*
X127309523Y-127882438D02*
X127357142Y-127930057D01*
X127357142Y-127930057D02*
X127404761Y-128025295D01*
X127404761Y-128025295D02*
X127404761Y-128168152D01*
X127404761Y-128168152D02*
X127357142Y-128263390D01*
X127357142Y-128263390D02*
X127309523Y-128311009D01*
X127309523Y-128311009D02*
X127214285Y-128358628D01*
X127214285Y-128358628D02*
X126833333Y-128358628D01*
X127833333Y-128834819D02*
X127833333Y-127834819D01*
X127833333Y-127834819D02*
X128214285Y-127834819D01*
X128214285Y-127834819D02*
X128309523Y-127882438D01*
X128309523Y-127882438D02*
X128357142Y-127930057D01*
X128357142Y-127930057D02*
X128404761Y-128025295D01*
X128404761Y-128025295D02*
X128404761Y-128168152D01*
X128404761Y-128168152D02*
X128357142Y-128263390D01*
X128357142Y-128263390D02*
X128309523Y-128311009D01*
X128309523Y-128311009D02*
X128214285Y-128358628D01*
X128214285Y-128358628D02*
X127833333Y-128358628D01*
X129404761Y-128739580D02*
X129357142Y-128787200D01*
X129357142Y-128787200D02*
X129214285Y-128834819D01*
X129214285Y-128834819D02*
X129119047Y-128834819D01*
X129119047Y-128834819D02*
X128976190Y-128787200D01*
X128976190Y-128787200D02*
X128880952Y-128691961D01*
X128880952Y-128691961D02*
X128833333Y-128596723D01*
X128833333Y-128596723D02*
X128785714Y-128406247D01*
X128785714Y-128406247D02*
X128785714Y-128263390D01*
X128785714Y-128263390D02*
X128833333Y-128072914D01*
X128833333Y-128072914D02*
X128880952Y-127977676D01*
X128880952Y-127977676D02*
X128976190Y-127882438D01*
X128976190Y-127882438D02*
X129119047Y-127834819D01*
X129119047Y-127834819D02*
X129214285Y-127834819D01*
X129214285Y-127834819D02*
X129357142Y-127882438D01*
X129357142Y-127882438D02*
X129404761Y-127930057D01*
X130357142Y-128834819D02*
X129785714Y-128834819D01*
X130071428Y-128834819D02*
X130071428Y-127834819D01*
X130071428Y-127834819D02*
X129976190Y-127977676D01*
X129976190Y-127977676D02*
X129880952Y-128072914D01*
X129880952Y-128072914D02*
X129785714Y-128120533D01*
%TO.C,R2*%
D12*
X145300000Y-130000000D02*
X146700000Y-130000000D01*
%TO.C,Rc1*%
X149500000Y-114700000D02*
X149500000Y-113300000D01*
%TO.C,Q1*%
X139350000Y-127175000D02*
X139350000Y-127800000D01*
X139550000Y-127175000D02*
X139350000Y-127175000D01*
D13*
X139700000Y-129400000D02*
X139700000Y-129400000D01*
X139700000Y-129500000D02*
X139700000Y-129500000D01*
D12*
X141150000Y-127175000D02*
X141350000Y-127175000D01*
X141350000Y-127175000D02*
X141350000Y-127800000D01*
D13*
X139700000Y-129400000D02*
G75*
G02*
X139700000Y-129500000I0J-50000D01*
G01*
X139700000Y-129500000D02*
G75*
G02*
X139700000Y-129400000I0J50000D01*
G01*
%TO.C,R3*%
D12*
X150300000Y-130000000D02*
X151700000Y-130000000D01*
%TO.C,Q2*%
X139350000Y-120175000D02*
X139350000Y-120800000D01*
X139550000Y-120175000D02*
X139350000Y-120175000D01*
D13*
X139700000Y-122400000D02*
X139700000Y-122400000D01*
X139700000Y-122500000D02*
X139700000Y-122500000D01*
D12*
X141150000Y-120175000D02*
X141350000Y-120175000D01*
X141350000Y-120175000D02*
X141350000Y-120800000D01*
D13*
X139700000Y-122400000D02*
G75*
G02*
X139700000Y-122500000I0J-50000D01*
G01*
X139700000Y-122500000D02*
G75*
G02*
X139700000Y-122400000I0J50000D01*
G01*
%TO.C,Cs1*%
D12*
X130700000Y-130000000D02*
G75*
G02*
X130600000Y-130000000I-50000J0D01*
G01*
X130600000Y-130000000D02*
G75*
G02*
X130700000Y-130000000I50000J0D01*
G01*
%TO.C,R1*%
X133300000Y-125000000D02*
X134700000Y-125000000D01*
%TO.C,Rb2*%
X131300000Y-136000000D02*
X132700000Y-136000000D01*
%TO.C,Rb1*%
X137300000Y-136000000D02*
X138700000Y-136000000D01*
%TO.C,RL1*%
X141300000Y-136000000D02*
X142700000Y-136000000D01*
%TO.C,C1*%
X146050000Y-137750000D02*
G75*
G02*
X145950000Y-137750000I-50000J0D01*
G01*
X145950000Y-137750000D02*
G75*
G02*
X146050000Y-137750000I50000J0D01*
G01*
%TO.C,C2*%
X124900000Y-119000000D02*
G75*
G02*
X124800000Y-119000000I-50000J0D01*
G01*
X124800000Y-119000000D02*
G75*
G02*
X124900000Y-119000000I50000J0D01*
G01*
%TO.C,Cc1*%
X150050000Y-121850000D02*
G75*
G02*
X149950000Y-121850000I-50000J0D01*
G01*
X149950000Y-121850000D02*
G75*
G02*
X150050000Y-121850000I50000J0D01*
G01*
%TO.C,High_voltage1*%
D14*
X123620000Y-133620000D02*
X123620000Y-136380000D01*
X126270000Y-133620000D02*
X123620000Y-133620000D01*
X126270000Y-133620000D02*
X126270000Y-136380000D01*
X126270000Y-136380000D02*
X123620000Y-136380000D01*
X127540000Y-133620000D02*
X128920000Y-133620000D01*
X128920000Y-133620000D02*
X128920000Y-135000000D01*
%TO.C,VDC-Low_volatge1*%
X123705524Y-112392106D02*
X123705524Y-115152106D01*
X126355524Y-112392106D02*
X123705524Y-112392106D01*
X126355524Y-112392106D02*
X126355524Y-115152106D01*
X126355524Y-115152106D02*
X123705524Y-115152106D01*
X127625524Y-112392106D02*
X129005524Y-112392106D01*
X129005524Y-112392106D02*
X129005524Y-113772106D01*
%TO.C,C3*%
D12*
X133050000Y-116750000D02*
G75*
G02*
X132950000Y-116750000I-50000J0D01*
G01*
X132950000Y-116750000D02*
G75*
G02*
X133050000Y-116750000I50000J0D01*
G01*
%TO.C,Ra1*%
X137300000Y-115000000D02*
X138700000Y-115000000D01*
%TO.C,MPPC1*%
D14*
X126620000Y-124730000D02*
X126620000Y-122080000D01*
X129380000Y-122080000D02*
X126620000Y-122080000D01*
X129380000Y-124730000D02*
X126620000Y-124730000D01*
X129380000Y-124730000D02*
X129380000Y-122080000D01*
X129380000Y-126000000D02*
X129380000Y-127380000D01*
X129380000Y-127380000D02*
X128000000Y-127380000D01*
%TD*%
M02*
