%TF.GenerationSoftware,KiCad,Pcbnew,10.0.1*%
%TF.CreationDate,2026-06-16T05:04:28-04:00*%
%TF.ProjectId,G2_MPPC_Readout,47325f4d-5050-4435-9f52-6561646f7574,rev?*%
%TF.SameCoordinates,Original*%
%TF.FileFunction,Copper,L1,Top*%
%TF.FilePolarity,Positive*%
%FSLAX46Y46*%
G04 Gerber Fmt 4.6, Leading zero omitted, Abs format (unit mm)*
G04 Created by KiCad (PCBNEW 10.0.1) date 2026-06-16 05:04:28*
%MOMM*%
%LPD*%
G01*
G04 APERTURE LIST*
%TA.AperFunction,SMDPad,CuDef*%
%ADD10R,1.750000X1.000000*%
%TD*%
%TA.AperFunction,SMDPad,CuDef*%
%ADD11R,1.000000X1.750000*%
%TD*%
%TA.AperFunction,SMDPad,CuDef*%
%ADD12R,0.600000X0.800000*%
%TD*%
%TA.AperFunction,SMDPad,CuDef*%
%ADD13R,1.190000X1.880000*%
%TD*%
%TA.AperFunction,SMDPad,CuDef*%
%ADD14R,1.880000X1.190000*%
%TD*%
%TA.AperFunction,ComponentPad*%
%ADD15R,1.700000X1.700000*%
%TD*%
%TA.AperFunction,ComponentPad*%
%ADD16C,1.700000*%
%TD*%
%TA.AperFunction,Conductor*%
%ADD17C,0.762000*%
%TD*%
%TA.AperFunction,Conductor*%
%ADD18C,0.200000*%
%TD*%
G04 APERTURE END LIST*
D10*
%TO.P,R2,1,1_1*%
%TO.N,GND*%
X145650000Y-131500000D03*
%TO.P,R2,2,2_2*%
%TO.N,Net-(Cc1-Pad2)*%
X145650000Y-128500000D03*
%TD*%
D11*
%TO.P,Rc1,1,1_1*%
%TO.N,Net-(Q2-C)*%
X146150000Y-114000000D03*
%TO.P,Rc1,2,2_2*%
%TO.N,/VDC*%
X143150000Y-114000000D03*
%TD*%
D12*
%TO.P,Q1,1,B_1*%
%TO.N,Net-(Q1-B)*%
X139700000Y-128600000D03*
%TO.P,Q1,2,E_2*%
%TO.N,Net-(Q1-E)*%
X141000000Y-128600000D03*
%TO.P,Q1,3,C_3*%
%TO.N,Net-(Q1-C)*%
X140350000Y-127000000D03*
%TD*%
%TO.P,Q2,1,B_1*%
%TO.N,Net-(Q2-B)*%
X139700000Y-121600000D03*
%TO.P,Q2,2,E_2*%
%TO.N,Net-(Q1-C)*%
X141000000Y-121600000D03*
%TO.P,Q2,3,C_3*%
%TO.N,Net-(Q2-C)*%
X140350000Y-120000000D03*
%TD*%
D13*
%TO.P,Cs1,1,1_1*%
%TO.N,Net-(MPPC1-Pin_2)*%
X132600000Y-130000000D03*
%TO.P,Cs1,2,2_2*%
%TO.N,Net-(Q1-B)*%
X135400000Y-130000000D03*
%TD*%
D10*
%TO.P,R1,1,1_1*%
%TO.N,Net-(Q1-B)*%
X134000000Y-126500000D03*
%TO.P,R1,2,2_2*%
%TO.N,Net-(Q2-B)*%
X134000000Y-123500000D03*
%TD*%
%TO.P,Rb2,1,1_1*%
%TO.N,GND*%
X134000000Y-137500000D03*
%TO.P,Rb2,2,2_2*%
%TO.N,Net-(MPPC1-Pin_2)*%
X134000000Y-134500000D03*
%TD*%
%TO.P,Rb1,1,1_1*%
%TO.N,GND*%
X138000000Y-137500000D03*
%TO.P,Rb1,2,2_2*%
%TO.N,Net-(Q1-B)*%
X138000000Y-134500000D03*
%TD*%
%TO.P,RL1,1,1_1*%
%TO.N,GND*%
X142000000Y-137500000D03*
%TO.P,RL1,2,2_2*%
%TO.N,Net-(Q1-E)*%
X142000000Y-134500000D03*
%TD*%
D14*
%TO.P,C1,1,1_1*%
%TO.N,GND*%
X146000000Y-137400000D03*
%TO.P,C1,2,2_2*%
%TO.N,Net-(Q1-E)*%
X146000000Y-134600000D03*
%TD*%
D13*
%TO.P,C2,1,1_1*%
%TO.N,GND*%
X125200000Y-119000000D03*
%TO.P,C2,2,2_2*%
%TO.N,Net-(Q2-B)*%
X128000000Y-119000000D03*
%TD*%
D14*
%TO.P,Cc1,1,1_1*%
%TO.N,Net-(Q2-C)*%
X145650000Y-122200000D03*
%TO.P,Cc1,2,2_2*%
%TO.N,Net-(Cc1-Pad2)*%
X145650000Y-125000000D03*
%TD*%
D15*
%TO.P,High_voltage1,1,Pin_1_1*%
%TO.N,Net-(High_voltage1-Pin_1)*%
X127540000Y-135000000D03*
D16*
%TO.P,High_voltage1,2,Pin_2_2*%
%TO.N,GND*%
X125000000Y-135000000D03*
%TD*%
D15*
%TO.P,VDC-Low_volatge1,1,Pin_1_1*%
%TO.N,/VDC*%
X127625524Y-113772106D03*
D16*
%TO.P,VDC-Low_volatge1,2,Pin_2_2*%
%TO.N,GND*%
X125085524Y-113772106D03*
%TD*%
D14*
%TO.P,C3,1,1_1*%
%TO.N,GND*%
X133000000Y-116400000D03*
%TO.P,C3,2,2_2*%
%TO.N,/VDC*%
X133000000Y-113600000D03*
%TD*%
D10*
%TO.P,Ra1,1,1_1*%
%TO.N,Net-(Q2-B)*%
X138000000Y-116500000D03*
%TO.P,Ra1,2,2_2*%
%TO.N,/VDC*%
X138000000Y-113500000D03*
%TD*%
D15*
%TO.P,MPPC1,1,Pin_1_1*%
%TO.N,Net-(High_voltage1-Pin_1)*%
X128000000Y-126000000D03*
D16*
%TO.P,MPPC1,2,Pin_2_2*%
%TO.N,Net-(MPPC1-Pin_2)*%
X128000000Y-123460000D03*
%TD*%
%TO.N,GND*%
D17*
X125085524Y-113772106D02*
X125085524Y-118885524D01*
X127500000Y-137500000D02*
X125000000Y-135000000D01*
X125200000Y-119200000D02*
X125000000Y-119400000D01*
X138000000Y-137500000D02*
X142000000Y-137500000D01*
X148000000Y-135400000D02*
X148000000Y-133850000D01*
X134000000Y-137500000D02*
X127500000Y-137500000D01*
X142000000Y-137500000D02*
X145900000Y-137500000D01*
X146000000Y-137400000D02*
X148000000Y-135400000D01*
X134000000Y-137500000D02*
X138000000Y-137500000D01*
X148000000Y-133850000D02*
X145650000Y-131500000D01*
X133000000Y-116400000D02*
X127800000Y-116400000D01*
X125085524Y-118885524D02*
X125200000Y-119000000D01*
X145900000Y-137500000D02*
X146000000Y-137400000D01*
X127800000Y-116400000D02*
X125200000Y-119000000D01*
X125000000Y-119400000D02*
X125000000Y-135000000D01*
X125200000Y-119000000D02*
X125200000Y-119200000D01*
%TO.N,Net-(Cc1-Pad2)*%
X145650000Y-128500000D02*
X145650000Y-125000000D01*
%TO.N,Net-(Q2-C)*%
X140350000Y-120000000D02*
X143450000Y-120000000D01*
X143450000Y-120000000D02*
X145650000Y-122200000D01*
X146150000Y-116850000D02*
X146150000Y-114000000D01*
X143450000Y-119550000D02*
X146150000Y-116850000D01*
X143450000Y-120000000D02*
X143450000Y-119550000D01*
%TO.N,/VDC*%
X138500000Y-114000000D02*
X138000000Y-113500000D01*
X127797630Y-113600000D02*
X127625524Y-113772106D01*
X138000000Y-113500000D02*
X133100000Y-113500000D01*
X133100000Y-113500000D02*
X133000000Y-113600000D01*
X133000000Y-113600000D02*
X127797630Y-113600000D01*
X143150000Y-114000000D02*
X138500000Y-114000000D01*
%TO.N,Net-(Q1-B)*%
X135400000Y-130000000D02*
X135400000Y-127900000D01*
X138300000Y-130000000D02*
X138000000Y-130300000D01*
X138300000Y-130000000D02*
X139700000Y-128600000D01*
X135400000Y-130000000D02*
X138300000Y-130000000D01*
X135400000Y-127900000D02*
X134000000Y-126500000D01*
X138000000Y-130300000D02*
X138000000Y-134500000D01*
%TO.N,Net-(Q1-E)*%
X141000000Y-128600000D02*
X141000000Y-133500000D01*
X145900000Y-134500000D02*
X146000000Y-134600000D01*
X141000000Y-133500000D02*
X142000000Y-134500000D01*
X142000000Y-134500000D02*
X145900000Y-134500000D01*
%TO.N,Net-(Q1-C)*%
X141000000Y-126350000D02*
X141000000Y-121600000D01*
X140350000Y-127000000D02*
X141000000Y-126350000D01*
%TO.N,Net-(Q2-B)*%
X139700000Y-121600000D02*
X135900000Y-121600000D01*
X135900000Y-121600000D02*
X134000000Y-123500000D01*
X129500000Y-119000000D02*
X134000000Y-123500000D01*
X138000000Y-116500000D02*
X138000000Y-119900000D01*
X138000000Y-119900000D02*
X139700000Y-121600000D01*
X134000000Y-123500000D02*
X133500000Y-123500000D01*
X128000000Y-119000000D02*
X129500000Y-119000000D01*
%TO.N,Net-(MPPC1-Pin_2)*%
X132600000Y-130000000D02*
X132600000Y-133100000D01*
X132600000Y-128060000D02*
X132600000Y-130000000D01*
X128000000Y-123460000D02*
X132600000Y-128060000D01*
X132600000Y-133100000D02*
X134000000Y-134500000D01*
%TO.N,Net-(High_voltage1-Pin_1)*%
X127540000Y-135000000D02*
X127540000Y-126460000D01*
D18*
X128000000Y-134540000D02*
X127540000Y-135000000D01*
D17*
X128000000Y-126000000D02*
X127540000Y-126460000D01*
%TD*%
M02*
